<svg width="100%" viewBox="0 0 680 100" role="img" xmlns="http://www.w3.org/2000/svg">
  <defs>
    <linearGradient id="ng" x1="0" y1="0" x2="1" y2="1">
      <stop offset="0%" stop-color="#10B981"/>
      <stop offset="100%" stop-color="#06B6D4"/>
    </linearGradient>
  </defs>

  <g transform="translate(0, 4)">
    <rect x="0" y="0" width="88" height="88" rx="16" fill="#0F172A"/>
    <line x1="17" y1="71" x2="17" y2="17" stroke="#10B981" stroke-width="8" stroke-linecap="round"/>
    <line x1="71" y1="71" x2="71" y2="17" stroke="#10B981" stroke-width="8" stroke-linecap="round"/>
    <path d="M17 17 L71 71" stroke="url(#ng)" stroke-width="8" stroke-linecap="round" fill="none"/>
    <circle cx="17" cy="17" r="6" fill="#06B6D4"/>
    <circle cx="17" cy="17" r="3.2" fill="#ffffff"/>
    <circle cx="71" cy="71" r="6" fill="#06B6D4"/>
    <circle cx="71" cy="71" r="3.2" fill="#ffffff"/>
    <circle cx="44" cy="44" r="8" fill="#10B981"/>
    <circle cx="44" cy="44" r="4" fill="#ffffff"/>
    <line x1="17" y1="71" x2="44" y2="44" stroke="#06B6D4" stroke-width="1.5" stroke-dasharray="3 3" opacity="0.5"/>
    <line x1="71" y1="17" x2="44" y2="44" stroke="#06B6D4" stroke-width="1.5" stroke-dasharray="3 3" opacity="0.5"/>
    <circle cx="71" cy="17" r="4.5" fill="#06B6D4" opacity="0.35"/>
    <circle cx="17" cy="71" r="4.5" fill="#10B981" opacity="0.35"/>
  </g>

  <g transform="translate(104, 10)" font-family="'Inter', 'Helvetica Neue', sans-serif">
    <text x="0" y="52" font-size="46" font-weight="800" letter-spacing="-2" fill="#0F172A">Nutri</text>
    <text x="118" y="52" font-size="46" font-weight="800" letter-spacing="-2" fill="url(#ng)">Cart</text>
    <circle cx="4" cy="68" r="2.5" fill="#10B981" opacity="0.5"/>
    <circle cx="12" cy="68" r="2.5" fill="url(#ng)" opacity="0.5"/>
    <circle cx="20" cy="68" r="2.5" fill="#06B6D4" opacity="0.5"/>
    <text x="30" y="71" font-size="11.5" font-weight="600" fill="#94A3B8" letter-spacing="2.8">AI HEALTH PLATFORM</text>
  </g>
</svg>